PathFileType	4	(X/Y/Z)	C:/Users/beibeiliu/ov580/test_trc/User3\sequence.9_training_dense_left.trc
DataRate	CameraRate	NumFrames	NumMarkers	Units	OrigDataRate	OrigDataStartFrame	OrigNumFrames
120	120	9	19	mm	120	1	73
Frame#	Time	ThumbCMC			ThumbMCP			ThumbIP			ThumbTip			IndexMCP			IndexPIP			IndexTip			MiddleMCP			MiddlePIP			MiddleTip			RingMCP			RingPIP			RingTip			PinkyMCP			PinkyPIP			PinkyTip			BackHand1			BackHand2			BackHand3	
		X0	Y0	Z0	X1	Y1	Z1	X2	Y2	Z2	X3	Y3	Z3	X4	Y4	Z4	X5	Y5	Z5	X6	Y6	Z6	X7	Y7	Z7	X8	Y8	Z8	X9	Y9	Z9	X10	Y10	Z10	X11	Y11	Z11	X12	Y12	Z12	X13	Y13	Z13	X14	Y14	Z14	X15	Y15	Z15	X16	Y16	Z16	X17	Y17	Z17	X18	Y18	Z18	
0	0	-74.9295	0.551975	6.99384	-57.9401	-4.75319	-17.4274	-41.0874	-6.96221	-43.3667	-34.8444	-13.3179	-69.0154	-103.397	20.6541	-65.7499	-96.6151	19.366	-93.6007	-91.4025	7.8005	-123.405	-128.776	18.6552	-69.6074	-131.591	15.9388	-100.257	-130.549	-1.1528	-129.98	-144.867	8.3351	-63.3248	-150.59	6.09895	-87.0224	-152.559	-8.46466	-112.829	-163.463	-8.47498	-46.4416	-169.96	-12.328	-66.3271	-169.345	-22.5316	-91.5269	-141.866	12.1173	-11.3137	-139.954	7.14791	23.2128	-110.34	19.5741	1.96284	
1	0.00833333	-76.3829	-0.974127	4.89621	-57.0025	-4.37674	-18.2971	-45.8464	-8.55678	-43.5031	-35.2625	-14.6906	-68.1078	-103.634	19.9764	-67.2281	-98.0367	17.983	-97.7141	-93.2197	6.12239	-123.93	-127.821	18.4381	-72.2667	-129.588	16.1469	-98.0733	-129.616	-1.9618	-130.06	-148.334	6.53591	-61.0175	-148.628	5.2015	-87.5488	-150.904	-10.5402	-117.711	-159.662	-9.46649	-43.4849	-169.898	-14.0179	-71.6803	-171.704	-23.3532	-91.1497	-143.017	8.95669	-7.77356	-139.461	8.04491	20.5658	-109.272	18.2948	0.0338418	
2	0.0166667	-76.0661	-2.07434	6.91231	-58.4986	-5.40049	-15.5972	-42.292	-8.13567	-46.4828	-36.887	-14.702	-63.8343	-98.5037	20.5582	-70.6062	-98.0991	17.5866	-95.1339	-89.7212	8.82729	-120.124	-129.242	17.539	-68.4993	-129.183	15.1793	-98.8268	-126.058	0.180601	-128.929	-142.424	7.4592	-59.3922	-147.998	3.58649	-91.5116	-150.426	-10.4713	-116.346	-161.038	-8.76337	-44.2362	-168.998	-14.053	-69.4033	-168.125	-24.3365	-90.5699	-143.544	9.26175	-7.89124	-138.131	6.36089	20.1681	-110.035	16.8669	3.12383	
3	0.025	-73.0912	0.481834	2.82457	-58.9714	-4.76268	-18.3681	-44.1241	-8.30608	-44.4506	-35.4776	-14.4401	-62.2015	-101.107	20.2175	-69.4836	-94.2357	18.713	-98.2193	-95.4227	8.34633	-118.65	-126.083	18.3066	-67.112	-128.765	15.2659	-100.513	-127.622	-0.186449	-128.913	-141.606	8.73453	-61.754	-147.578	4.66801	-90.0338	-147.292	-6.01029	-112.451	-155.314	-8.18418	-43.7579	-163.976	-10.2325	-69.7315	-167.932	-21.2151	-91.7946	-141.567	9.59569	-10.9392	-141.785	6.2816	19.6317	-108.791	18.7096	0.482334	
4	0.0333333	-76.8824	-0.77364	6.16714	-57.5997	-3.4437	-20.4806	-41.3676	-7.38444	-43.6118	-33.0996	-13.3758	-64.6929	-98.1931	21.6815	-66.7217	-96.2205	20.3273	-94.0538	-91.3918	10.739	-119.653	-123.756	20.9593	-73.5382	-124.356	15.2621	-103.659	-123.353	2.32346	-129.112	-144.422	6.54708	-61.8135	-144.658	5.58642	-92.6595	-146.158	-8.85302	-117.074	-159.355	-9.08328	-47.0146	-160.278	-9.71326	-69.7001	-164.948	-20.4709	-93.6224	-142.219	11.1989	-11.054	-136.613	9.52458	16.864	-109.058	18.3506	-0.489647	
5	0.0416667	-75.8728	0.478378	1.40772	-58.3656	-3.10022	-20.4092	-43.8898	-6.42302	-47.9779	-32.6592	-12.7168	-66.7815	-95.5295	20.0314	-67.2414	-97.7534	16.2571	-99.071	-91.4297	8.83147	-120.966	-123.829	16.7509	-74.7685	-121.149	14.5175	-103.018	-121.778	-0.299697	-131.664	-141.632	5.19499	-64.4427	-143.104	2.89377	-94.3204	-143.495	-8.12111	-116.787	-154.075	-8.0153	-49.0039	-156.328	-9.76756	-70.2173	-159.694	-21.0623	-94.7777	-136.997	11.3371	-10.4812	-137.594	8.64043	16.4196	-104.467	19.3963	-1.32691	
6	0.05	-72.3021	0.749681	1.66496	-55.3495	-2.99466	-21.598	-44.3398	-8.53711	-44.3155	-34.9499	-12.4767	-65.8735	-95.5857	14.4623	-73.893	-90.2075	12.8189	-96.3989	-90.7765	5.45439	-122.042	-118.42	12.2908	-78.4111	-113.51	10.598	-102.745	-112.546	0.129981	-136.375	-131.193	2.77775	-65.6795	-134.557	0.184269	-94.0607	-132.615	-7.98072	-123.54	-150.987	-10.7853	-52.6407	-151.414	-12.9778	-78.4907	-152.701	-19.6747	-99.5186	-132.479	8.86924	-13.9528	-137.195	9.13774	14.5909	-105.329	19.3993	-2.34399	
7	0.0583333	-71.2872	-1.74306	6.01298	-55.5095	-6.36407	-18.9466	-40.5529	-8.15982	-48.2025	-29.9115	-13.2212	-65.0834	-89.2201	8.80187	-74.7173	-84.8601	5.75198	-101.852	-87.8275	2.66879	-122.491	-109.783	6.27076	-81.338	-106.766	3.57806	-105.206	-101.307	-1.09184	-140.317	-124.895	-2.04835	-70.3556	-129.241	-5.8669	-96.8437	-127.597	-10.4561	-121.888	-145.006	-12.5383	-58.3764	-143.697	-15.2771	-77.256	-144.512	-19.8959	-104.384	-134.494	6.47643	-18.0851	-135.005	9.69676	8.17785	-99.4782	19.121	-6.7586	
8	0.0666667	-71.8443	-4.86728	1.91448	-57.8725	-9.65074	-22.8455	-45.1311	-12.6031	-47.038	-31.2387	-15.3086	-68.1567	-86.6644	2.64753	-74.0013	-84.9607	0.429695	-103.179	-82.7721	0.0129291	-127.89	-106.221	0.59663	-80.3761	-105.9	-2.80274	-110.071	-100.855	-3.60238	-138.327	-123.62	-8.08197	-74.71	-124.862	-10.8367	-97.7203	-120.478	-12.3484	-125.139	-142.669	-18.0733	-56.4764	-139.53	-19.5949	-77.4126	-141.54	-20.1895	-102.926	-130.148	3.91851	-23.546	-134.772	8.63093	6.96336	-99.4712	14.0601	-9.21915	
